<svg width="80" height="80" viewBox="0 0 80 80" fill="none" xmlns="http://www.w3.org/2000/svg">
<path d="M50 5.94678L47.3467 8.60011C46.8222 9.12456 46.4651 9.79275 46.3204 10.5202C46.1757 11.2476 46.25 12.0016 46.5338 12.6868C46.8176 13.372 47.2983 13.9577 47.9149 14.3698C48.5316 14.7818 49.2567 15.0017 49.9983 15.0017C50.74 15.0017 51.465 14.7818 52.0817 14.3698C52.6984 13.9577 53.179 13.372 53.4629 12.6868C53.7467 12.0016 53.821 11.2476 53.6763 10.5202C53.5316 9.79275 53.1744 9.12456 52.65 8.60011L50 5.94678ZM40 5.94678L37.3467 8.60011C36.8222 9.12456 36.4651 9.79275 36.3204 10.5202C36.1757 11.2476 36.25 12.0016 36.5338 12.6868C36.8176 13.372 37.2983 13.9577 37.9149 14.3698C38.5316 14.7818 39.2567 15.0017 39.9983 15.0017C40.74 15.0017 41.465 14.7818 42.0817 14.3698C42.6984 13.9577 43.179 13.372 43.4629 12.6868C43.7467 12.0016 43.821 11.2476 43.6763 10.5202C43.5316 9.79275 43.1744 9.12456 42.65 8.60011L40 5.94678ZM30 5.94678L27.3467 8.60011C26.8222 9.12456 26.4651 9.79275 26.3204 10.5202C26.1757 11.2476 26.25 12.0016 26.5338 12.6868C26.8176 13.372 27.2983 13.9577 27.9149 14.3698C28.5316 14.7818 29.2567 15.0017 29.9983 15.0017C30.74 15.0017 31.465 14.7818 32.0817 14.3698C32.6984 13.9577 33.179 13.372 33.4629 12.6868C33.7467 12.0016 33.821 11.2476 33.6763 10.5202C33.5316 9.79275 33.1744 9.12456 32.65 8.60011L30 5.94678ZM32.5 25.1568C34.16 25.0901 35.8267 25.0401 37.5 25.0168V22.5001C37.5 21.8371 37.7634 21.2012 38.2322 20.7323C38.7011 20.2635 39.337 20.0001 40 20.0001C40.663 20.0001 41.2989 20.2635 41.7678 20.7323C42.2366 21.2012 42.5 21.8371 42.5 22.5001V25.0168C44.1733 25.0401 45.84 25.0868 47.5 25.1568V22.5001C47.5 21.8371 47.7634 21.2012 48.2322 20.7323C48.7011 20.2635 49.337 20.0001 50 20.0001C50.663 20.0001 51.2989 20.2635 51.7678 20.7323C52.2366 21.2012 52.5 21.8371 52.5 22.5001V25.4334L53.5233 25.5068C58.69 25.8968 62.5 30.2634 62.5 35.3268V38.7201C47.5444 37.087 32.4555 37.087 17.5 38.7201V35.3268C17.5 30.2634 21.31 25.8968 26.4767 25.5068L27.5 25.4334V22.5001C27.5 21.8371 27.7634 21.2012 28.2322 20.7323C28.7011 20.2635 29.337 20.0001 30 20.0001C30.663 20.0001 31.2989 20.2635 31.7678 20.7323C32.2366 21.2012 32.5 21.8371 32.5 22.5001V25.1568ZM40 42.5001C31.76 42.5001 23.6667 43.1134 15.7533 44.3001C10.9067 45.0234 7.5 49.2401 7.5 54.0201V55.3001C10.4277 54.7559 13.4531 55.1819 16.1167 56.5134C17.3224 57.1163 18.6519 57.4302 20 57.4302C21.3481 57.4302 22.6776 57.1163 23.8833 56.5134C25.7826 55.5641 27.8767 55.0698 30 55.0698C32.1233 55.0698 34.2174 55.5641 36.1167 56.5134C37.3224 57.1163 38.6519 57.4302 40 57.4302C41.3481 57.4302 42.6776 57.1163 43.8833 56.5134C45.7826 55.5641 47.8767 55.0698 50 55.0698C52.1233 55.0698 54.2174 55.5641 56.1167 56.5134C57.3224 57.1163 58.6519 57.4302 60 57.4302C61.3481 57.4302 62.6776 57.1163 63.8833 56.5134C66.5469 55.1819 69.5723 54.7559 72.5 55.3001V54.0201C72.5 49.2401 69.0933 45.0201 64.2467 44.2968C56.2201 43.098 48.1156 42.4975 40 42.5001ZM72.5 60.4368C70.3799 59.7994 68.0964 59.9961 66.1167 60.9868C64.2174 61.9361 62.1233 62.4304 60 62.4304C57.8767 62.4304 55.7826 61.9361 53.8833 60.9868C52.6777 60.3836 51.3481 60.0696 50 60.0696C48.6519 60.0696 47.3223 60.3836 46.1167 60.9868C44.2174 61.9361 42.1233 62.4304 40 62.4304C37.8767 62.4304 35.7826 61.9361 33.8833 60.9868C32.6777 60.3836 31.3481 60.0696 30 60.0696C28.6519 60.0696 27.3223 60.3836 26.1167 60.9868C24.2174 61.9361 22.1233 62.4304 20 62.4304C17.8767 62.4304 15.7826 61.9361 13.8833 60.9868C11.9035 59.9961 9.62006 59.7994 7.5 60.4368V68.7501C7.5 72.2034 10.3 75.0001 13.75 75.0001H66.25C69.7 75.0001 72.5 72.2001 72.5 68.7501V60.4368Z" fill="#FAD839"/>
</svg>
