<svg width="100" height="80" viewBox="0 0 100 80" fill="none" xmlns="http://www.w3.org/2000/svg">
<g clip-path="url(#clip0_59_11)">
<path d="M50 5C48.7343 5 47.4843 5.21875 46.2968 5.64062L2.46871 21.4688C0.984339 22.0156 -3.6364e-05 23.4219 -3.6364e-05 25C-3.6364e-05 26.5781 0.984339 27.9844 2.46871 28.5312L11.5156 31.7969C8.95309 35.8281 7.49996 40.5938 7.49996 45.6094V50C7.49996 54.4375 5.81246 59.0156 4.01559 62.625C2.99996 64.6562 1.84371 66.6562 0.499964 68.5C-3.63586e-05 69.1719 -0.140661 70.0469 0.140589 70.8438C0.421839 71.6406 1.07809 72.2344 1.89059 72.4375L11.8906 74.9375C12.5468 75.1094 13.25 74.9844 13.8281 74.625C14.4062 74.2656 14.8125 73.6719 14.9375 73C16.2812 66.3125 15.6093 60.3125 14.6093 56.0156C14.1093 53.7969 13.4375 51.5312 12.5 49.4531V45.6094C12.5 40.8906 14.0937 36.4375 16.8593 32.875C18.875 30.4531 21.4843 28.5 24.5468 27.2969L49.0781 17.6562C50.3593 17.1562 51.8125 17.7812 52.3125 19.0625C52.8125 20.3438 52.1875 21.7969 50.9062 22.2969L26.375 31.9375C24.4375 32.7031 22.7343 33.875 21.3437 35.3125L46.2812 44.3125C47.4687 44.7344 48.7187 44.9531 49.9843 44.9531C51.25 44.9531 52.5 44.7344 53.6875 44.3125L97.5312 28.5312C99.0156 28 100 26.5781 100 25C100 23.4219 99.0156 22.0156 97.5312 21.4688L53.7031 5.64062C52.5156 5.21875 51.2656 5 50 5ZM20 63.75C20 69.2656 33.4375 75 50 75C66.5625 75 80 69.2656 80 63.75L77.6093 41.0312L55.3906 49.0625C53.6562 49.6875 51.8281 50 50 50C48.1718 50 46.3281 49.6875 44.6093 49.0625L22.3906 41.0312L20 63.75Z" fill="#FAD839"/>
</g>
<defs>
<clipPath id="clip0_59_11">
<rect width="100" height="80" fill="white"/>
</clipPath>
</defs>
</svg>
