<svg width="80" height="80" viewBox="0 0 80 80" fill="none" xmlns="http://www.w3.org/2000/svg">
<path d="M30.8333 43.3334C30.8333 47.0167 27.85 50.0001 24.1667 50.0001C20.4833 50.0001 17.5 47.0167 17.5 43.3334C17.5 39.6501 20.4833 36.6667 24.1667 36.6667C27.85 36.6667 30.8333 39.6501 30.8333 43.3334Z" fill="#FAD839"/>
<path fill-rule="evenodd" clip-rule="evenodd" d="M24.1667 46.6667C25.0507 46.6667 25.8986 46.3156 26.5237 45.6904C27.1488 45.0653 27.5 44.2175 27.5 43.3334C27.5 42.4494 27.1488 41.6015 26.5237 40.9764C25.8986 40.3513 25.0507 40.0001 24.1667 40.0001C23.2826 40.0001 22.4348 40.3513 21.8096 40.9764C21.1845 41.6015 20.8333 42.4494 20.8333 43.3334C20.8333 44.2175 21.1845 45.0653 21.8096 45.6904C22.4348 46.3156 23.2826 46.6667 24.1667 46.6667ZM24.1667 50.0001C27.85 50.0001 30.8333 47.0167 30.8333 43.3334C30.8333 39.6501 27.85 36.6667 24.1667 36.6667C20.4833 36.6667 17.5 39.6501 17.5 43.3334C17.5 47.0167 20.4833 50.0001 24.1667 50.0001Z" fill="#FAD839"/>
<path d="M10 60.9082C10 55.8716 19.4383 53.3333 24.1667 53.3333C28.895 53.3333 38.3333 55.8716 38.3333 60.9082V69.9999H10V60.9082Z" fill="#FAD839"/>
<path fill-rule="evenodd" clip-rule="evenodd" d="M13.89 59.9716C13.3633 60.4916 13.3333 60.7899 13.3333 60.9099V66.6666H35V60.9082C35 60.7916 34.97 60.4916 34.4433 59.9716C33.8867 59.4233 32.9683 58.8349 31.71 58.2966C29.1767 57.2116 26.0833 56.6666 24.1667 56.6666C22.25 56.6666 19.155 57.2116 16.6233 58.2966C15.365 58.8349 14.4467 59.4233 13.89 59.9716ZM24.1667 53.3333C19.4383 53.3333 10 55.8716 10 60.9082V69.9999H38.3333V60.9082C38.3333 55.8716 28.895 53.3333 24.1667 53.3333Z" fill="#FAD839"/>
<path d="M62.5 43.3334C62.5 47.0167 59.5166 50.0001 55.8333 50.0001C52.15 50.0001 49.1666 47.0167 49.1666 43.3334C49.1666 39.6501 52.15 36.6667 55.8333 36.6667C59.5166 36.6667 62.5 39.6501 62.5 43.3334Z" fill="#FAD839"/>
<path fill-rule="evenodd" clip-rule="evenodd" d="M55.8333 46.6667C56.7173 46.6667 57.5652 46.3156 58.1903 45.6904C58.8154 45.0653 59.1666 44.2175 59.1666 43.3334C59.1666 42.4494 58.8154 41.6015 58.1903 40.9764C57.5652 40.3513 56.7173 40.0001 55.8333 40.0001C54.9492 40.0001 54.1014 40.3513 53.4763 40.9764C52.8511 41.6015 52.5 42.4494 52.5 43.3334C52.5 44.2175 52.8511 45.0653 53.4763 45.6904C54.1014 46.3156 54.9492 46.6667 55.8333 46.6667ZM55.8333 50.0001C59.5166 50.0001 62.5 47.0167 62.5 43.3334C62.5 39.6501 59.5166 36.6667 55.8333 36.6667C52.15 36.6667 49.1666 39.6501 49.1666 43.3334C49.1666 47.0167 52.15 50.0001 55.8333 50.0001Z" fill="#FAD839"/>
<path d="M46.6667 39.9999C46.6667 43.6833 43.6834 46.6666 40 46.6666C36.3167 46.6666 33.3334 43.6833 33.3334 39.9999C33.3334 36.3166 36.3167 33.3333 40 33.3333C43.6834 33.3333 46.6667 36.3166 46.6667 39.9999Z" fill="#FAD839"/>
<path fill-rule="evenodd" clip-rule="evenodd" d="M40 43.3333C40.8841 43.3333 41.7319 42.9821 42.3571 42.3569C42.9822 41.7318 43.3334 40.884 43.3334 39.9999C43.3334 39.1159 42.9822 38.268 42.3571 37.6429C41.7319 37.0178 40.8841 36.6666 40 36.6666C39.116 36.6666 38.2681 37.0178 37.643 37.6429C37.0179 38.268 36.6667 39.1159 36.6667 39.9999C36.6667 40.884 37.0179 41.7318 37.643 42.3569C38.2681 42.9821 39.116 43.3333 40 43.3333ZM40 46.6666C43.6834 46.6666 46.6667 43.6833 46.6667 39.9999C46.6667 36.3166 43.6834 33.3333 40 33.3333C36.3167 33.3333 33.3334 36.3166 33.3334 39.9999C33.3334 43.6833 36.3167 46.6666 40 46.6666Z" fill="#FAD839"/>
<path d="M38.3334 21.3883C38.3334 19.252 37.4847 17.2032 35.9741 15.6926C34.4635 14.182 32.4147 13.3333 30.2784 13.3333H24.9967C22.8113 13.3298 20.712 14.1853 19.1515 15.7153C17.591 17.2454 16.6943 19.3274 16.6547 21.5125C16.6151 23.6976 17.4358 25.8107 18.9399 27.3962C20.444 28.9818 22.5109 29.9127 24.6951 29.9883L25.0001 30V33.3333C25.0001 33.3333 38.3334 31.3883 38.3334 21.3883ZM43.3334 18.7267C43.3334 16.4122 44.2528 14.1925 45.8894 12.556C47.5259 10.9194 49.7456 10 52.0601 10H61.6667C63.8769 10 65.9965 10.878 67.5593 12.4408C69.1221 14.0036 70.0001 16.1232 70.0001 18.3333C70.0001 20.5435 69.1221 22.6631 67.5593 24.2259C65.9965 25.7887 63.8769 26.6667 61.6667 26.6667H58.3334V31.6667C58.3334 31.6667 43.3334 29.56 43.3334 18.7267ZM41.6667 60.9083C41.6667 55.8717 51.1051 53.3333 55.8334 53.3333C60.5617 53.3333 70.0001 55.8717 70.0001 60.9083V70H41.6667V60.9083Z" fill="#FAD839"/>
<path fill-rule="evenodd" clip-rule="evenodd" d="M45.5566 59.9717C45.0299 60.4917 44.9999 60.79 44.9999 60.91V66.6667H66.6666V60.9083C66.6666 60.7917 66.6366 60.4917 66.1099 59.9717C65.5533 59.4233 64.6349 58.835 63.3766 58.2967C60.8433 57.2117 57.7499 56.6667 55.8333 56.6667C53.9166 56.6667 50.8216 57.2117 48.29 58.2967C47.0316 58.835 46.1133 59.4233 45.5566 59.9717ZM55.8333 53.3333C51.1049 53.3333 41.6666 55.8717 41.6666 60.9083V70H69.9999V60.9083C69.9999 55.8717 60.5616 53.3333 55.8333 53.3333ZM39.9999 57.575C39.9999 54.78 36.9216 52.7533 33.325 51.5033C35.4122 50.5171 37.6914 50.0037 39.9999 50C42.3085 50.0037 44.5877 50.5171 46.6749 51.5033C43.0783 52.7533 39.9999 54.78 39.9999 57.575Z" fill="#FAD839"/>
<path fill-rule="evenodd" clip-rule="evenodd" d="M39.9999 57.5749C39.9999 56.0866 40.8733 54.8149 42.2333 53.7632L42.4683 53.5882C43.63 52.7449 45.1016 52.0499 46.6749 51.5049C45.1139 50.7689 43.4429 50.2932 41.7283 50.0966C40.5797 49.9675 39.4202 49.9675 38.2716 50.0966C36.5571 50.2926 34.8861 50.7678 33.325 51.5032C34.8966 52.0499 36.3699 52.7449 37.5299 53.5866C37.6099 53.6449 37.6883 53.7032 37.765 53.7632C39.1266 54.8132 39.9999 56.0866 39.9999 57.5749Z" fill="#FAD839"/>
</svg>
