<svg width="80" height="80" viewBox="0 0 80 80" fill="none" xmlns="http://www.w3.org/2000/svg">
<path fill-rule="evenodd" clip-rule="evenodd" d="M40.7667 10C46.8395 9.99895 52.6888 12.2905 57.1447 16.4165C61.6006 20.5424 64.3347 26.1984 64.8 32.2533L66.6134 55.83C67.8667 56.9351 68.8232 58.3366 69.3954 59.9066C69.9676 61.4765 70.1373 63.1648 69.8889 64.8173C69.6406 66.4697 68.9821 68.0335 67.9737 69.3659C66.9652 70.6983 65.639 71.7567 64.1161 72.4445C62.5933 73.1323 60.9223 73.4275 59.256 73.3032C57.5896 73.1789 55.981 72.639 54.5771 71.7328C53.1731 70.8266 52.0186 69.5831 51.2191 68.1158C50.4195 66.6486 50.0004 65.0043 50 63.3333L20 63.3367C17.6384 63.3402 15.3518 62.5078 13.5451 60.9869C11.7384 59.4661 10.5283 57.3549 10.1291 55.0273C9.72982 52.6997 10.1672 50.3059 11.3638 48.2698C12.5604 46.2338 14.4389 44.687 16.6667 43.9033V34.1033C16.6663 30.9382 17.2893 27.804 18.5002 24.8796C19.7112 21.9553 21.4863 19.2981 23.7242 17.0599C25.9622 14.8217 28.6191 13.0462 31.5433 11.8348C34.4674 10.6235 37.6016 10 40.7667 10ZM60 60C59.116 60 58.2681 60.3512 57.643 60.9763C57.0179 61.6014 56.6667 62.4493 56.6667 63.3333C56.6667 64.2174 57.0179 65.0652 57.643 65.6904C58.2681 66.3155 59.116 66.6667 60 66.6667C60.8841 66.6667 61.7319 66.3155 62.357 65.6904C62.9822 65.0652 63.3334 64.2174 63.3334 63.3333C63.3334 62.4493 62.9822 61.6014 62.357 60.9763C61.7319 60.3512 60.8841 60 60 60ZM50.9334 50H20C19.1504 50.0009 18.3333 50.3263 17.7155 50.9095C17.0977 51.4927 16.7259 52.2898 16.6761 53.138C16.6263 53.9861 16.9023 54.8213 17.4476 55.4728C17.9929 56.1243 18.7664 56.543 19.61 56.6433L20 56.6667H52.5467L52.9967 56.1967L50.9334 50Z" fill="#FAD839"/>
</svg>
