<svg width="100" height="100" viewBox="0 0 100 100" fill="none" xmlns="http://www.w3.org/2000/svg">
<path d="M91.6666 31.3955V70.833C91.6668 74.0214 90.4486 77.0893 88.2613 79.4091C86.074 81.7289 83.0829 83.1251 79.9 83.3122L79.1666 83.333H20.8333C17.6449 83.3332 14.577 82.115 12.2572 79.9277C9.93745 77.7403 8.5412 74.7492 8.35415 71.5663L8.33331 70.833V31.3955L47.6875 57.633L48.1708 57.908C48.7404 58.1863 49.366 58.331 50 58.331C50.6339 58.331 51.2595 58.1863 51.8291 57.908L52.3125 57.633L91.6666 31.3955Z" fill="#333333"/>
<path d="M79.1667 16.667C83.6667 16.667 87.6125 19.042 89.8125 22.6128L50 49.1545L10.1875 22.6128C11.2322 20.916 12.6676 19.4937 14.3738 18.4644C16.08 17.4352 18.0076 16.8289 19.9958 16.6962L20.8333 16.667H79.1667Z" fill="#333333"/>
</svg>
