<svg width="90" height="91" viewBox="0 0 90 91" fill="none" xmlns="http://www.w3.org/2000/svg">
<path d="M65.4531 54.9062C63.9938 54 61.8063 54.25 60.5906 55.4687L50.9219 65.125C50.3359 65.7108 49.5412 66.0399 48.7125 66.0399C47.8839 66.0399 47.0892 65.7108 46.5031 65.125L24.7813 43.4062C24.1954 42.8202 23.8663 42.0255 23.8663 41.1968C23.8663 40.3682 24.1954 39.5735 24.7813 38.9875L33.8844 29.8875C35.1031 28.6687 35.2813 26.5281 34.2906 25.125L17.7281 1.64684C17.4991 1.31508 17.2039 1.03425 16.8611 0.821989C16.5183 0.609729 16.1354 0.470622 15.7363 0.4134C15.3372 0.356178 14.9306 0.382077 14.542 0.489471C14.1534 0.596865 13.7912 0.783434 13.4781 1.03747C13.4781 1.03747 0.559387 11.2875 0.559387 20.7093C0.559387 59.2562 31.8094 90.5031 70.35 90.5031C79.7719 90.5031 88.9375 73.2093 88.9375 73.2093C89.3238 72.4579 89.4162 71.5895 89.1966 70.7736C88.977 69.9577 88.4613 69.2529 87.75 68.7968L65.4531 54.9062Z" fill="#333333"/>
</svg>
